<svg width="20" height="20" viewBox="0 0 20 20" fill="none" xmlns="http://www.w3.org/2000/svg">
<path fill-rule="evenodd" clip-rule="evenodd" d="M6.45344 3.53582C6.18295 3.80375 6.1811 4.23812 6.4553 4.50605L12.0459 10.0194L6.45519 15.4952L6.39239 15.5654C6.18316 15.8343 6.20538 16.2198 6.45333 16.4654C6.72475 16.7333 7.16627 16.7343 7.43954 16.4663L13.4981 10.5322L13.5608 10.4622C13.5841 10.4322 13.6046 10.4008 13.6222 10.3683C13.6892 10.2595 13.7231 10.1364 13.7231 10.0136C13.7231 9.83806 13.6543 9.66157 13.5177 9.52806L7.43965 3.53308L7.36803 3.4719C7.09397 3.26807 6.70224 3.28938 6.45344 3.53582Z" fill="white"/>
</svg>
