<svg width="199" height="191" viewBox="0 0 199 191" fill="none" xmlns="http://www.w3.org/2000/svg">
<circle cx="93.5" cy="97.5" r="91" stroke="#FC800B" stroke-width="5"/>
<path d="M38.6232 67.4421C30.6113 69.5183 32.1113 82 32.1113 82C32.1113 82 37.1231 142.942 70.1113 163C103.1 183.058 126.611 168 135.611 160.5C144.379 153.194 156.623 139.942 155.123 126.442C153.923 115.642 136.29 121.942 129.623 126.442C125.456 130.275 114.323 134.442 109.123 126.442C102.623 116.442 107.623 110.442 110.623 106.942C119.083 97.0715 121.611 90.3878 139.123 88.4421C146.323 87.6421 144.623 83.9421 144.623 83.4421C144.623 79.6458 137.123 72.4421 119.623 73.9421C109.261 74.8302 96.2897 82.6087 91.123 86.9421C90.9564 84.1087 88.3736 75.565 91.123 65.9421C97.1232 44.9421 105.123 44.4421 108.123 34.9421C111.123 25.4421 101.123 16.9421 92.6232 19.4421C84.1232 21.9421 75.623 28.9421 67.623 49.4421C59.623 69.9421 60.123 95.9421 63.623 108.442C67.123 120.942 63.1112 120.5 62.123 118.942C60.7972 116.852 56.4149 95.9927 56.123 86.9421C55.6232 71.4421 59.4296 57.9089 60.123 54.4421C62.1232 44.4421 67.9564 36.2754 71.623 28.9421C71.123 27.4421 68.923 24.5421 64.123 24.9421C58.123 25.4421 50.623 30.4421 46.123 49.4421C41.623 68.4421 46.623 90.9421 50.623 99.4421C54.623 107.942 51.623 107.442 50.623 107.442C50.623 107.442 49.6232 107.442 48.123 103.942C46.2897 98.6087 42.4962 86.8679 41.6112 82C40.6114 76.5 40.6349 72 41.123 70C41.6112 68 40.2182 67.0288 38.6232 67.4421Z" fill="#FC800B"/>
<path d="M154.848 106.091C154.848 116.146 145.858 124.418 134.611 124.418C123.365 124.418 114.375 116.146 114.375 106.091C114.375 96.0359 123.365 87.7636 134.611 87.7636C145.858 87.7636 154.848 96.0359 154.848 106.091Z" fill="white" stroke="#FC800B" stroke-width="1.52727"/>
<circle cx="132.702" cy="106.091" r="18.3273" fill="white" stroke="#FC800B" stroke-width="1.52727"/>
<path d="M139.575 88.5273H141.866" stroke="#FC800B" stroke-width="0.610909" stroke-linecap="round"/>
<path d="M142.63 90.0546H144.921" stroke="#FC800B" stroke-width="0.610909" stroke-linecap="round"/>
<path d="M144.921 91.5818H147.211" stroke="#FC800B" stroke-width="0.610909" stroke-linecap="round"/>
<path d="M146.448 93.1091H149.502" stroke="#FC800B" stroke-width="0.610909" stroke-linecap="round"/>
<path d="M148.739 96.1636H151.793" stroke="#FC800B" stroke-width="0.610909" stroke-linecap="round"/>
<path d="M149.502 97.6909H152.557" stroke="#FC800B" stroke-width="0.610909" stroke-linecap="round"/>
<path d="M150.266 99.2182H153.32" stroke="#FC800B" stroke-width="0.610909" stroke-linecap="round"/>
<path d="M151.03 100.745H154.084" stroke="#FC800B" stroke-width="0.610909" stroke-linecap="round"/>
<path d="M151.03 102.273H154.848" stroke="#FC800B" stroke-width="0.610909" stroke-linecap="round"/>
<path d="M151.793 103.8H154.848" stroke="#FC800B" stroke-width="0.610909" stroke-linecap="round"/>
<path d="M151.793 105.327H154.848" stroke="#FC800B" stroke-width="0.610909" stroke-linecap="round"/>
<path d="M151.793 106.855H154.848" stroke="#FC800B" stroke-width="0.610909" stroke-linecap="round"/>
<path d="M151.793 108.382H154.848" stroke="#FC800B" stroke-width="0.610909" stroke-linecap="round"/>
<path d="M151.03 109.909L154.848 109.909" stroke="#FC800B" stroke-width="0.610909" stroke-linecap="round"/>
<path d="M151.03 111.436H154.084" stroke="#FC800B" stroke-width="0.610909" stroke-linecap="round"/>
<path d="M150.266 112.964H153.32" stroke="#FC800B" stroke-width="0.610909" stroke-linecap="round"/>
<path d="M149.502 114.491H152.557" stroke="#FC800B" stroke-width="0.610909" stroke-linecap="round"/>
<path d="M148.739 116.018L151.793 116.018" stroke="#FC800B" stroke-width="0.610909" stroke-linecap="round"/>
<path d="M147.975 117.545H151.03" stroke="#FC800B" stroke-width="0.610909" stroke-linecap="round"/>
<path d="M146.448 119.073H149.502" stroke="#FC800B" stroke-width="0.610909" stroke-linecap="round"/>
<path d="M144.921 120.6H147.211" stroke="#FC800B" stroke-width="0.610909" stroke-linecap="round"/>
<path d="M142.63 122.127H144.921" stroke="#FC800B" stroke-width="0.610909" stroke-linecap="round"/>
<path d="M139.575 123.655H141.866" stroke="#FC800B" stroke-width="0.610909" stroke-linecap="round"/>
<path d="M147.975 94.6364H151.03" stroke="#FC800B" stroke-width="0.610909" stroke-linecap="round"/>
<path d="M137.284 100.746C136.237 99.6988 134.395 98.972 132.702 98.9256M132.702 98.9256C130.688 98.8716 128.885 99.7838 128.885 102.272C128.885 106.854 137.284 104.563 137.284 109.145C137.284 111.759 135.048 112.882 132.702 112.797M132.702 98.9256V96.1636M128.12 110.673C129.105 111.986 130.935 112.733 132.702 112.797M132.702 112.797V116.018" stroke="#FC800B" stroke-width="1.52727" stroke-linecap="round" stroke-linejoin="round"/>
<path d="M155.331 38.6405C146.498 43.7403 135.748 41.3751 131.251 33.5873C126.755 25.7994 130.082 15.3066 138.915 10.2068C147.748 5.10697 158.499 7.47213 162.995 15.26C167.491 23.0479 164.164 33.5407 155.331 38.6405Z" fill="white" stroke="#FC800B" stroke-width="1.52727"/>
<path d="M152.716 34.1101C148.282 36.6699 143.501 37.6014 139.371 37.0695C135.243 36.5377 131.81 34.5551 129.943 31.3221C128.077 28.0891 128.076 24.1249 129.68 20.2836C131.284 16.4415 134.481 12.7665 138.915 10.2068C143.349 7.64704 148.13 6.71555 152.259 7.24744C156.388 7.77923 159.821 9.76183 161.687 12.9948C163.554 16.2278 163.554 20.192 161.951 24.0333C160.347 27.8754 157.149 31.5504 152.716 34.1101Z" fill="white" stroke="#FC800B" stroke-width="1.52727"/>
<path d="M163.647 17.9173L164.521 19.4309" stroke="#FC800B" stroke-width="0.610909" stroke-linecap="round"/>
<path d="M163.49 20.6991L165 23" stroke="#FC800B" stroke-width="0.610909" stroke-linecap="round"/>
<path d="M163.041 22.9763L165 26" stroke="#FC800B" stroke-width="0.610909" stroke-linecap="round"/>
<path d="M162.301 24.749L164 27" stroke="#FC800B" stroke-width="0.610909" stroke-linecap="round"/>
<path d="M160.506 27.8079L163.023 30.9819" stroke="#FC800B" stroke-width="0.610909" stroke-linecap="round"/>
<path d="M159.563 29.0049L161.935 32.053" stroke="#FC800B" stroke-width="0.610909" stroke-linecap="round"/>
<path d="M158.359 30.4054L161.108 33.9207" stroke="#FC800B" stroke-width="0.610909" stroke-linecap="round"/>
<path d="M157.435 31.5943L160 35" stroke="#FC800B" stroke-width="0.610909" stroke-linecap="round"/>
<path d="M156.113 32.3579L159 37" stroke="#FC800B" stroke-width="0.610909" stroke-linecap="round"/>
<path d="M155.081 33.626L157 37" stroke="#FC800B" stroke-width="0.610909" stroke-linecap="round"/>
<path d="M153.759 34.3896L156 38" stroke="#FC800B" stroke-width="0.610909" stroke-linecap="round"/>
<path d="M152.436 35.1533L155 39" stroke="#FC800B" stroke-width="0.610909" stroke-linecap="round"/>
<path d="M150.795 35.1241L153.303 38.8114" stroke="#FC800B" stroke-width="0.610909" stroke-linecap="round"/>
<path d="M149.5 36.1761L152 40" stroke="#FC800B" stroke-width="0.610909" stroke-linecap="round"/>
<path d="M148.177 36.9397L150 40" stroke="#FC800B" stroke-width="0.610909" stroke-linecap="round"/>
<path d="M146.563 37.1988L149 41" stroke="#FC800B" stroke-width="0.610909" stroke-linecap="round"/>
<path d="M144.949 37.458L147 41" stroke="#FC800B" stroke-width="0.610909" stroke-linecap="round"/>
<path d="M143.335 37.717L145 41" stroke="#FC800B" stroke-width="0.610909" stroke-linecap="round"/>
<path d="M141.721 37.9762L143 41" stroke="#FC800B" stroke-width="0.610909" stroke-linecap="round"/>
<path d="M139.816 37.7308L141 41" stroke="#FC800B" stroke-width="0.610909" stroke-linecap="round"/>
<path d="M137.911 37.4854L139 40" stroke="#FC800B" stroke-width="0.610909" stroke-linecap="round"/>
<path d="M135.714 36.7355L136.588 38.249" stroke="#FC800B" stroke-width="0.610909" stroke-linecap="round"/>
<path d="M133.226 35.4809L134.1 36.9945" stroke="#FC800B" stroke-width="0.610909" stroke-linecap="round"/>
<path d="M161 26L163.834 29.1436" stroke="#FC800B" stroke-width="0.610909" stroke-linecap="round"/>
<path d="M152.192 22.513C152.699 21.298 152.626 19.7176 152.021 18.5758M152.021 18.5758C151.299 17.2182 149.821 16.4828 147.666 17.727C143.698 20.018 148.886 24.4218 144.918 26.7128C142.654 28.0198 140.829 27.1042 140.007 25.5117M152.021 18.5758L154.413 17.1949M140.1 21.4224C139.338 22.7294 139.389 24.3123 140.007 25.5117M140.007 25.5117L137.218 27.1221" stroke="#FC800B" stroke-width="1.52727" stroke-linecap="round" stroke-linejoin="round"/>
<path d="M171.996 85.525C166.861 80.3901 166.506 72.5609 171.034 68.0336C175.561 63.5063 183.39 63.8607 188.525 68.9957C193.66 74.1307 194.014 81.9598 189.487 86.4872C184.96 91.0145 177.131 90.66 171.996 85.525Z" fill="white" stroke="#FC800B" stroke-width="1.08739"/>
<path d="M174.629 82.8914C172.052 80.314 170.53 77.1975 170.135 74.2596C169.74 71.3223 170.471 68.5962 172.35 66.7168C174.23 64.8373 176.956 64.1064 179.893 64.5015C182.831 64.8966 185.948 66.4183 188.525 68.9957C191.102 71.5731 192.624 74.6896 193.019 77.6275C193.414 80.5648 192.683 83.2909 190.804 85.1703C188.925 87.0498 186.198 87.7807 183.261 87.3856C180.323 86.9905 177.207 85.4688 174.629 82.8914Z" fill="white" stroke="#FC800B" stroke-width="1.08739"/>
<path d="M187.78 87.4255L186.9 88.3054" stroke="#FC800B" stroke-width="0.434955" stroke-linecap="round"/>
<path d="M185.838 87.8298L184.534 89.2923" stroke="#FC800B" stroke-width="0.434955" stroke-linecap="round"/>
<path d="M184.189 87.9408L182.47 89.8451" stroke="#FC800B" stroke-width="0.434955" stroke-linecap="round"/>
<path d="M182.833 87.7585L181.599 89.3417" stroke="#FC800B" stroke-width="0.434955" stroke-linecap="round"/>
<path d="M180.399 87.0879L178.68 89.4037" stroke="#FC800B" stroke-width="0.434955" stroke-linecap="round"/>
<path d="M179.402 86.66L177.743 88.8526" stroke="#FC800B" stroke-width="0.434955" stroke-linecap="round"/>
<path d="M178.217 86.0897L176.306 88.6281" stroke="#FC800B" stroke-width="0.434955" stroke-linecap="round"/>
<path d="M177.229 85.6737L175.36 88.065" stroke="#FC800B" stroke-width="0.434955" stroke-linecap="round"/>
<path d="M176.46 84.9048L174.46 86.9048" stroke="#FC800B" stroke-width="0.434955" stroke-linecap="round"/>
<path d="M175.398 84.4292L173.431 86.3704" stroke="#FC800B" stroke-width="0.434955" stroke-linecap="round"/>
<path d="M174.629 83.6603L172.559 85.867" stroke="#FC800B" stroke-width="0.434955" stroke-linecap="round"/>
<path d="M173.86 82.8914L171.687 85.3635" stroke="#FC800B" stroke-width="0.434955" stroke-linecap="round"/>
<path d="M173.578 81.7572L171.504 84.162" stroke="#FC800B" stroke-width="0.434955" stroke-linecap="round"/>
<path d="M172.616 81.0603L170.447 83.4846" stroke="#FC800B" stroke-width="0.434955" stroke-linecap="round"/>
<path d="M171.847 80.2915L170.078 82.1092" stroke="#FC800B" stroke-width="0.434955" stroke-linecap="round"/>
<path d="M171.371 79.2293L169.206 81.6057" stroke="#FC800B" stroke-width="0.434955" stroke-linecap="round"/>
<path d="M170.896 78.1671L168.838 80.2303" stroke="#FC800B" stroke-width="0.434955" stroke-linecap="round"/>
<path d="M170.42 77.1049L168.469 78.8549" stroke="#FC800B" stroke-width="0.434955" stroke-linecap="round"/>
<path d="M169.944 76.0427L168.101 77.4794" stroke="#FC800B" stroke-width="0.434955" stroke-linecap="round"/>
<path d="M169.762 74.6872L167.732 76.104" stroke="#FC800B" stroke-width="0.434955" stroke-linecap="round"/>
<path d="M169.58 73.3317L168.051 74.5443" stroke="#FC800B" stroke-width="0.434955" stroke-linecap="round"/>
<path d="M169.691 71.6829L168.811 72.5628" stroke="#FC800B" stroke-width="0.434955" stroke-linecap="round"/>
<path d="M170.095 69.7408L169.215 70.6207" stroke="#FC800B" stroke-width="0.434955" stroke-linecap="round"/>
<path d="M181.733 87.0943L180.094 89.6229" stroke="#FC800B" stroke-width="0.434955" stroke-linecap="round"/>
<path d="M182.508 80.3944C183.437 80.5194 184.511 80.1778 185.184 79.5509M185.184 79.5509C185.985 78.8046 186.219 77.6527 184.966 76.3999C182.659 74.0931 180.586 78.4724 178.28 76.1656C176.964 74.8495 177.257 73.4255 178.201 72.5672M185.184 79.5509L186.575 80.9414M181.03 71.877C179.991 71.5945 178.912 71.9208 178.201 72.5672M178.201 72.5672L176.579 70.9457" stroke="#FC800B" stroke-width="1.08739" stroke-linecap="round" stroke-linejoin="round"/>
</svg>
