<svg width="375" height="229" viewBox="0 0 375 229" fill="none" xmlns="http://www.w3.org/2000/svg">
<mask id="mask0_725_641" style="mask-type:alpha" maskUnits="userSpaceOnUse" x="0" y="0" width="376" height="229">
<rect width="376" height="229" transform="matrix(1 0 0 -1 0 229)" fill="#D9D9D9"/>
</mask>
<g mask="url(#mask0_725_641)">
<path d="M-26.3215 194.289L0.346737 220.947L-26.3215 247.625L-53 220.947L-26.3215 194.289Z" fill="white"/>
<path d="M75.2482 143.519L101.916 170.177L75.2482 196.815L48.5901 170.177L75.2482 143.519Z" fill="#FDFEFF"/>
<path d="M-26.3215 -8.82011L0.346737 17.838L-26.3215 44.4961L-53 17.838L-26.3215 -8.82011Z" fill="#F3F3F3"/>
<path d="M-0.916374 16.5748L25.7214 43.2329L-0.916374 69.8706L-27.5745 43.2329L-0.916374 16.5748Z" fill="#F3F3F3"/>
<path d="M24.4581 41.9496L51.1366 68.6383L24.4581 95.2964L-2.19995 68.6383L24.4581 41.9496Z" fill="#F9F9FA"/>
<path d="M49.8735 67.3446L76.5112 94.0026L49.8735 120.671L23.1951 94.0026L49.8735 67.3446Z" fill="#F6F6F6"/>
<path d="M75.2725 146.061L48.6077 119.424L75.2446 92.7595L101.909 119.396L75.2725 146.061Z" fill="#F6F6F6"/>
<path d="M100.653 118.145L127.311 144.782L100.653 171.44L73.9952 144.782L100.653 118.145Z" fill="#FDFEFF"/>
<path d="M126.048 143.519L152.686 170.177L126.048 196.815L99.3698 170.177L126.048 143.519Z" fill="#FDFEFF"/>
<path d="M151.402 168.914L178.061 195.572L151.402 222.241L124.765 195.572L151.402 168.914Z" fill="#FDFEFF"/>
<path d="M176.797 194.289L203.476 220.947L176.797 247.625L150.139 220.947L176.797 194.289Z" fill="#FDFEFF"/>
<path d="M202.192 219.694L228.881 246.332L202.192 273L175.534 246.332L202.192 219.694Z" fill="white"/>
<path d="M-0.916374 -34.2248L25.7214 -7.56671L-0.916374 19.1016L-27.5745 -7.56671L-0.916374 -34.2248Z" fill="#F3F3F3"/>
<path d="M24.4581 -8.82011L51.1366 17.838L24.4581 44.4961L-2.19995 17.838L24.4581 -8.82011Z" fill="#F3F3F3"/>
<path d="M49.8735 16.5748L76.5112 43.2329L49.8735 69.8706L23.1951 43.2329L49.8735 16.5748Z" fill="#F3F3F3"/>
<path d="M75.2482 41.9496L101.916 68.6383L75.2482 95.2964L48.5901 68.6383L75.2482 41.9496Z" fill="#F3F3F3"/>
<path d="M100.64 120.633L73.9816 93.9746L100.64 67.3165L127.298 93.9746L100.64 120.633Z" fill="#F3F3F3"/>
<path d="M126.048 92.77L152.686 119.408L126.048 146.045L99.3698 119.408L126.048 92.77Z" fill="#F9F9FA"/>
<path d="M151.402 118.145L178.061 144.782L151.402 171.44L124.765 144.782L151.402 118.145Z" fill="#FDFEFF"/>
<path d="M176.797 143.519L203.476 170.177L176.797 196.815L150.139 170.177L176.797 143.519Z" fill="#FDFEFF"/>
<path d="M227.598 194.289L254.256 220.947L227.598 247.625L200.939 220.947L227.598 194.289Z" fill="#FDFEFF"/>
<path d="M49.8735 -34.2248L76.5112 -7.56671L49.8735 19.1016L23.1951 -7.56671L49.8735 -34.2248Z" fill="#F2F2F2"/>
<path d="M75.2643 44.5233L48.6062 17.8652L75.2643 -8.79288L101.922 17.8652L75.2643 44.5233Z" fill="#F3F3F3"/>
<path d="M100.653 16.5748L127.311 43.2329L100.653 69.8706L73.9952 43.2329L100.653 16.5748Z" fill="#F1F0F0"/>
<path d="M126.048 41.9496L152.686 68.6383L126.048 95.2964L99.3698 68.6383L126.048 41.9496Z" fill="#F5F6F6"/>
<path d="M151.402 67.3446L178.061 94.0026L151.402 120.671L124.765 94.0026L151.402 67.3446Z" fill="#F3F3F3"/>
<path d="M176.797 92.77L203.476 119.408L176.797 146.045L150.139 119.408L176.797 92.77Z" fill="#F7F8F8"/>
<path d="M202.192 118.145L228.881 144.782L202.192 171.44L175.534 144.782L202.192 118.145Z" fill="#FAFAFA"/>
<path d="M227.598 143.519L254.256 170.177L227.598 196.815L200.939 170.177L227.598 143.519Z" fill="#F7F8F8"/>
<path d="M278.367 194.289L305.056 220.947L278.367 247.625L251.709 220.947L278.367 194.289Z" fill="white"/>
<path d="M303.762 219.694L330.43 246.332L303.762 273L277.104 246.332L303.762 219.694Z" fill="white"/>
<path d="M100.635 19.0673L73.9771 -7.59082L100.635 -34.2489L127.293 -7.59078L100.635 19.0673Z" fill="#F5F6F6"/>
<path d="M126.048 -8.82011L152.686 17.838L126.048 44.4961L99.3698 17.838L126.048 -8.82011Z" fill="#F3F3F3"/>
<path d="M151.402 16.5748L178.061 43.2329L151.402 69.8706L124.765 43.2329L151.402 16.5748Z" fill="#F1F0F0"/>
<path d="M176.797 41.9496L203.476 68.6383L176.797 95.2964L150.139 68.6383L176.797 41.9496Z" fill="#F3F3F3"/>
<path d="M202.192 67.3446L228.881 94.0026L202.192 120.671L175.534 94.0026L202.192 67.3446Z" fill="#EFEEEE"/>
<path d="M227.605 146.033L200.94 119.396L227.577 92.7311L254.242 119.368L227.605 146.033Z" fill="#F7F8F8"/>
<path d="M252.993 118.145L279.63 144.782L252.993 171.44L226.334 144.782L252.993 118.145Z" fill="#F7F8F8"/>
<path d="M278.367 143.519L305.056 170.177L278.367 196.815L251.709 170.177L278.367 143.519Z" fill="#FDFEFF"/>
<path d="M303.77 222.236L277.112 195.578L303.77 168.92L330.428 195.578L303.77 222.236Z" fill="#FDFEFF"/>
<path d="M329.167 194.289L355.825 220.947L329.167 247.625L302.509 220.947L329.167 194.289Z" fill="white"/>
<path d="M151.402 -34.2248L178.061 -7.56671L151.402 19.1016L124.765 -7.56671L151.402 -34.2248Z" fill="#EDEDED"/>
<path d="M176.797 -8.82011L203.476 17.838L176.797 44.4961L150.139 17.838L176.797 -8.82011Z" fill="#EDEDED"/>
<path d="M202.192 16.5748L228.881 43.2329L202.192 69.8706L175.534 43.2329L202.192 16.5748Z" fill="#ECECEC"/>
<path d="M227.598 41.9496L254.256 68.6383L227.598 95.2964L200.939 68.6383L227.598 41.9496Z" fill="#F6F6F6"/>
<path d="M252.993 67.3446L279.63 94.0026L252.993 120.671L226.334 94.0026L252.993 67.3446Z" fill="#F6F6F6"/>
<path d="M278.367 92.77L305.056 119.408L278.367 146.045L251.709 119.408L278.367 92.77Z" fill="#F3F3F3"/>
<path d="M303.762 118.145L330.43 144.782L303.762 171.44L277.104 144.782L303.762 118.145Z" fill="#EDEDED"/>
<path d="M329.167 143.519L355.825 170.177L329.167 196.815L302.509 170.177L329.167 143.519Z" fill="#F6F6F6"/>
<path d="M354.557 222.272L327.898 195.614L354.557 168.956L381.215 195.614L354.557 222.272Z" fill="#F6F6F6"/>
<path d="M379.937 194.289L406.625 220.947L379.937 247.625L353.279 220.947L379.937 194.289Z" fill="white"/>
<path d="M202.192 -34.2248L228.881 -7.56671L202.192 19.1016L175.534 -7.56671L202.192 -34.2248Z" fill="#EDEDED"/>
<path d="M227.591 44.4906L200.933 17.8325L227.591 -8.8256L254.249 17.8325L227.591 44.4906Z" fill="#ECECEC"/>
<path d="M252.993 16.5748L279.63 43.2329L252.993 69.8706L226.334 43.2329L252.993 16.5748Z" fill="#F1F0F0"/>
<path d="M278.367 41.9496L305.056 68.6383L278.367 95.2964L251.709 68.6383L278.367 41.9496Z" fill="#F5F6F6"/>
<path d="M303.766 120.67L277.108 94.0122L303.766 67.3541L330.424 94.0122L303.766 120.67Z" fill="#ECECEC"/>
<path d="M329.177 146.032L302.512 119.395L329.149 92.7302L355.814 119.367L329.177 146.032Z" fill="#EDEDED"/>
<path d="M354.562 118.145L381.22 144.782L354.562 171.44L327.904 144.782L354.562 118.145Z" fill="#ECECEC"/>
<path d="M379.937 143.519L406.625 170.177L379.937 196.815L353.279 170.177L379.937 143.519Z" fill="#F9F9FA"/>
<path d="M252.993 -34.2248L279.63 -7.56671L252.993 19.1016L226.334 -7.56671L252.993 -34.2248Z" fill="#ECECEC"/>
<path d="M278.367 -8.82011L305.056 17.838L278.367 44.4961L251.709 17.838L278.367 -8.82011Z" fill="#F0EFEF"/>
<path d="M303.762 16.5748L330.43 43.2329L303.762 69.8706L277.104 43.2329L303.762 16.5748Z" fill="#EFEEEE"/>
<path d="M329.167 41.9496L355.825 68.6383L329.167 95.2964L302.509 68.6383L329.167 41.9496Z" fill="#F3F3F3"/>
<path d="M354.562 120.697L327.904 94.0391L354.562 67.3809L381.22 94.0391L354.562 120.697Z" fill="#F3F3F3"/>
<path d="M379.937 92.77L406.625 119.408L379.937 146.045L353.279 119.408L379.937 92.77Z" fill="#EDEDED"/>
<path d="M303.761 19.0951L277.103 -7.56299L303.761 -34.2211L330.419 -7.56299L303.761 19.0951Z" fill="#F3F3F3"/>
<path d="M329.167 44.4965L302.508 17.8384L329.167 -8.81974L355.825 17.8384L329.167 44.4965Z" fill="#EDEDED"/>
<path d="M354.562 16.5748L381.22 43.2329L354.562 69.8706L327.904 43.2329L354.562 16.5748Z" fill="#EBEBEB"/>
<path d="M379.937 41.9496L406.625 68.6383L379.937 95.2964L353.279 68.6383L379.937 41.9496Z" fill="#ECECEC"/>
<path d="M354.568 19.1318L327.91 -7.52637L354.568 -34.1844L381.226 -7.52633L354.568 19.1318Z" fill="#EDEDED"/>
<path d="M379.937 -8.82011L406.625 17.838L379.937 44.4961L353.279 17.838L379.937 -8.82011Z" fill="#F0EFEF"/>
</g>
</svg>
